<!--?xml version="1.0" standalone="no"?-->
              <svg id="sw-js-blob-svg" viewBox="0 0 100 100" xmlns="http://www.w3.org/2000/svg" version="1.1">
                    <defs> 
                        <linearGradient id="sw-gradient" x1="0" x2="1" y1="1" y2="0">
                            <stop id="stop1" stop-color="rgba(248, 117, 55, 1)" offset="0%"></stop>
                            <stop id="stop2" stop-color="rgba(251, 168, 31, 1)" offset="100%"></stop>
                        </linearGradient>
                    </defs>
                <path fill="url(#sw-gradient)" d="M26.3,-28.7C33.8,-25,39.6,-16.5,39.8,-8.1C40,0.3,34.6,8.6,29.3,16.1C24,23.6,18.7,30.3,12.2,32.1C5.6,33.9,-2.2,30.7,-10.8,28.2C-19.5,25.7,-28.9,23.9,-33.6,18.2C-38.2,12.5,-38.1,2.9,-35.7,-5.6C-33.3,-14.1,-28.8,-21.5,-22.4,-25.3C-16.1,-29.2,-8.1,-29.6,0.6,-30.4C9.4,-31.2,18.7,-32.3,26.3,-28.7Z" width="100%" height="100%" transform="translate(50 50)" stroke-width="0" style="transition: all 0.3s ease 0s;"></path>
              </svg>