<svg id="visual" viewBox="0 0 900 600" width="900" height="600" xmlns="http://www.w3.org/2000/svg" xmlns:xlink="http://www.w3.org/1999/xlink" version="1.1"><rect x="0" y="0" width="900" height="600" fill="#000"></rect><path d="M0 380L21.5 395.2C43 410.3 86 440.7 128.8 452.2C171.7 463.7 214.3 456.3 257.2 444.3C300 432.3 343 415.7 385.8 417.2C428.7 418.7 471.3 438.3 514.2 454.3C557 470.3 600 482.7 642.8 491.5C685.7 500.3 728.3 505.7 771.2 500C814 494.3 857 477.7 878.5 469.3L900 461L900 601L878.5 601C857 601 814 601 771.2 601C728.3 601 685.7 601 642.8 601C600 601 557 601 514.2 601C471.3 601 428.7 601 385.8 601C343 601 300 601 257.2 601C214.3 601 171.7 601 128.8 601C86 601 43 601 21.5 601L0 601Z" fill="#3676d1" stroke-linecap="round" stroke-linejoin="miter"></path></svg>